# xmcd
#
# Track frame offsets:
#	150
#	11684
#	22737
#	38141
#	49749
#	60806
#	74686
#	85631
#	101315
#	113828
#
# Disc length: 1693 seconds
#
# Revision: 1
# Processed by: cddbd v1.5.2PL0 Copyright (c) Steve Scherf et al.
# Submitted via: audiograbber 1.83.01
#
DISCID=6d069b0a
DTITLE=George Strait - Strait From The Heart
DYEAR=1982
DGENRE=Country
TTITLE0=Fool Hearted Memory
TTITLE1=Honky Tonk Crazy
TTITLE2=The Only Thing I Have Left
TTITLE3=The Steal Of The Night
TTITLE4=I Can't See Texas From Here
TTITLE5=Marin Del Rey
TTITLE6=Lover In Disquise
TTITLE7=Heartbroke
TTITLE8=Amarillo By Morning
TTITLE9=Fire I Can't Put Out
EXTD=
EXTT0=
EXTT1=
EXTT2=
EXTT3=
EXTT4=
EXTT5=
EXTT6=
EXTT7=
EXTT8=
EXTT9=
PLAYORDER=
